# xmcd CD database file
#
# Track frame offsets:
#	150
#	24264
#	53364
#	92889
#	116019
#	142599
#	183307
#	210689
#	287853
#
# Disc length: 4476 seconds
#
# Revision: 0
# Processed by: cddbd v1.5PL3 Copyright (c) Steve Scherf et al.
# Submitted via: CDex 1.51
#
DISCID=73117a09
DTITLE=Dexter Gordon - Birthday Celebration CD 3 (1970-1977)
DYEAR=2003
DGENRE=Jazz
TTITLE0=The Christmas Song
TTITLE1=The Group
TTITLE2=Days Of Wine And Roses
TTITLE3=Airegin
TTITLE4=The First Time Ever I Saw Your Face
TTITLE5=Tangerine
TTITLE6=Some Other Spring
TTITLE7=Treux Bleu
TTITLE8=Polka Dots And Moonbeams
EXTD=YEAR: 2003
EXTT0=
EXTT1=
EXTT2=
EXTT3=
EXTT4=
EXTT5=
EXTT6=
EXTT7=
EXTT8=
PLAYORDER=
